<svg width="287" height="81" viewBox="0 0 287 81" fill="none" xmlns="http://www.w3.org/2000/svg">
<path d="M286.362 38.642C286.362 42.0336 285.748 44.9668 284.519 47.4418C283.291 49.8984 281.604 51.9333 279.459 53.5466C277.315 55.1416 274.785 56.324 271.87 57.094C268.955 57.864 265.811 58.249 262.437 58.249C259.046 58.249 255.883 57.864 252.95 57.094C250.017 56.324 247.469 55.1416 245.305 53.5466C243.142 51.9333 241.446 49.8984 240.218 47.4418C238.99 44.9668 238.375 42.0336 238.375 38.642C238.375 36.387 238.66 34.3429 239.228 32.5096C239.796 30.658 240.594 29.0081 241.62 27.5598C242.647 26.0931 243.885 24.8282 245.333 23.7649C246.799 22.7015 248.422 21.8216 250.2 21.1249C251.997 20.4099 253.922 19.8875 255.975 19.5575C258.028 19.2091 260.182 19.035 262.437 19.035C265.811 19.035 268.955 19.42 271.87 20.1899C274.785 20.9599 277.315 22.1516 279.459 23.7649C281.604 25.3598 283.291 27.3948 284.519 29.8697C285.748 32.3263 286.362 35.2504 286.362 38.642ZM282.814 38.642C282.814 35.9654 282.374 33.6004 281.494 31.5472C280.633 29.4939 279.349 27.7706 277.645 26.3773C275.94 24.9657 273.813 23.9024 271.265 23.1874C268.735 22.4541 265.792 22.0874 262.437 22.0874C259.082 22.0874 256.122 22.4541 253.555 23.1874C251.007 23.9207 248.871 24.9932 247.148 26.4048C245.424 27.7981 244.123 29.5305 243.243 31.6022C242.363 33.6554 241.923 36.002 241.923 38.642C241.923 41.3186 242.363 43.6835 243.243 45.7368C244.123 47.7901 245.424 49.5225 247.148 50.9342C248.871 52.3275 251.007 53.3908 253.555 54.1241C256.122 54.8391 259.082 55.1966 262.437 55.1966C265.792 55.1966 268.735 54.8391 271.265 54.1241C273.813 53.3908 275.94 52.3275 277.645 50.9342C279.349 49.5225 280.633 47.7901 281.494 45.7368C282.374 43.6835 282.814 41.3186 282.814 38.642Z" fill="url(#paint0_linear_1_5420)"/>
<path d="M221.627 57.5063V32.5644C221.627 30.4745 221.343 28.7603 220.775 27.422C220.225 26.0654 219.427 24.9929 218.383 24.2046C217.356 23.4163 216.1 22.8663 214.615 22.5547C213.13 22.243 211.462 22.0872 209.61 22.0872C207.465 22.0872 205.357 22.353 203.285 22.8847C201.232 23.398 199.289 24.058 197.456 24.8646C195.622 25.6529 193.936 26.5329 192.396 27.5045C190.856 28.4762 189.554 29.4112 188.491 30.3095V57.5063H185.053V19.7222H188.491V26.3496C189.774 25.5429 191.186 24.6996 192.726 23.8196C194.284 22.9213 195.952 22.1055 197.731 21.3722C199.527 20.6205 201.443 20.0064 203.478 19.5297C205.513 19.0531 207.658 18.8148 209.913 18.8148C212.461 18.8148 214.679 19.1264 216.568 19.7497C218.474 20.3547 220.051 21.2255 221.297 22.3622C222.562 23.4805 223.507 24.8463 224.13 26.4596C224.753 28.0545 225.065 29.842 225.065 31.8219V57.5063H221.627Z" fill="url(#paint1_linear_1_5420)"/>
<path d="M165.497 57.5048V19.7208H168.934V57.5048H165.497Z" fill="url(#paint2_linear_1_5420)"/>
<path d="M122.388 19.7208L135.863 54.7549L149.832 19.7208H153.655L138.448 57.5048H133.333L120.078 23.3782L106.851 57.5048H101.736L86.5288 19.7208H90.3512L104.321 54.7549L117.768 19.7208H122.388Z" fill="url(#paint3_linear_1_5420)"/>
<g clip-path="url(#clip0_1_5420)">
<path d="M252.3 68.3635C251.41 67.9514 250.893 68.574 250.687 68.9422L248.166 74.0192L245.645 68.9422C245.435 68.6134 245.132 68.346 244.448 68.346C243.764 68.346 243.466 68.6134 243.251 68.9422L240.73 74.0192L238.209 68.9379C237.999 68.609 237.429 67.9952 236.649 68.403C235.719 68.8852 236.066 69.8235 236.149 69.9813L239.529 76.47C239.74 76.8602 240.016 77.1759 240.735 77.1759C241.454 77.1759 241.726 76.8602 241.94 76.47L244.453 71.6736L246.965 76.47C247.175 76.8602 247.451 77.1759 248.171 77.1759C248.89 77.1759 249.161 76.8602 249.376 76.47L252.813 69.9419C253.024 69.4727 253.046 68.7055 252.305 68.3635H252.3Z" fill="#E61951"/>
<path d="M253.879 79.5653C253.879 78.8331 254.466 78.2149 255.198 78.2149C255.931 78.2149 256.518 78.8507 256.518 79.5653C256.518 80.2317 255.9 80.8499 255.198 80.8499C254.497 80.8499 253.879 80.2492 253.879 79.5653ZM256.369 75.8518C256.369 76.6322 255.882 77.1539 255.198 77.1539C254.515 77.1539 254.028 76.6322 254.028 75.8518V69.6042C254.028 68.8239 254.515 68.3021 255.198 68.3021C255.882 68.3021 256.369 68.8239 256.369 69.6042V75.8518Z" fill="#E61951"/>
<path d="M257.939 69.6525C257.939 68.8721 258.425 68.3504 259.109 68.3504C259.71 68.3504 260.1 68.6748 260.183 69.2141C260.639 68.5783 261.336 68.2539 262.446 68.2539C264.283 68.2539 265.651 69.4245 265.651 71.4106V75.9001C265.651 76.6805 265.164 77.2022 264.48 77.2022C263.796 77.2022 263.309 76.6805 263.309 75.9001V71.8183C263.309 70.7266 262.625 70.2093 261.779 70.2093C260.819 70.2093 260.284 70.9108 260.284 71.8183V75.9001C260.284 76.6805 259.798 77.2022 259.114 77.2022C258.43 77.2022 257.943 76.6805 257.943 75.9001V69.6525H257.939Z" fill="#E61951"/>
<path d="M267.821 70.4986H267.299C266.663 70.4986 266.273 70.1084 266.273 69.4727C266.273 68.8852 266.711 68.4468 267.299 68.4468H267.821V67.0482C267.821 66.2678 268.307 65.7461 268.991 65.7461C269.675 65.7461 270.162 66.2678 270.162 67.0482V68.4468H270.828C271.429 68.4468 271.951 68.723 271.951 69.4727C271.951 70.2224 271.429 70.4986 270.828 70.4986H270.162V75.9C270.162 76.6804 269.675 77.2022 268.991 77.2022C268.307 77.2022 267.821 76.6804 267.821 75.9V70.4986Z" fill="#E61951"/>
<path d="M274.362 73.5545C274.524 74.7119 275.484 75.2468 276.576 75.2468C277.782 75.2468 278.61 74.3042 279.229 74.3042C279.733 74.3042 280.189 74.8084 280.189 75.3126C280.189 76.3209 278.106 77.2986 276.366 77.2986C273.731 77.2986 271.973 75.3783 271.973 72.7916C271.973 70.4153 273.696 68.2539 276.168 68.2539C278.641 68.2539 280.382 70.5644 280.382 72.5154C280.382 73.2169 280.075 73.5545 279.356 73.5545H274.362ZM278.04 71.9937C277.909 70.9678 277.26 70.2049 276.168 70.2049C275.077 70.2049 274.428 71.0028 274.314 71.9937H278.04Z" fill="#E61951"/>
<path d="M281.587 69.5209C281.587 68.7405 282.205 68.3503 282.793 68.3503C283.411 68.3503 283.933 68.5783 283.933 69.328H283.964C284.402 68.6792 284.875 68.3503 285.608 68.3503C286.178 68.3503 286.748 68.7581 286.748 69.6042C286.748 70.3671 286.046 70.4197 285.349 70.7441C284.647 71.0686 283.933 71.3799 283.933 72.3049V75.9C283.933 76.6804 283.446 77.2022 282.762 77.2022C282.078 77.2022 281.592 76.6804 281.592 75.9V69.5209H281.587Z" fill="#E61951"/>
</g>
<g clip-path="url(#clip1_1_5420)">
<path d="M10.8043 51.1115C10.3456 51.1115 9.88701 50.9887 9.47248 50.7519C8.65223 50.2782 8.15833 49.4274 8.15833 48.4801V22.9638C8.15833 18.9114 10.3545 15.1308 13.8824 13.0958L36.0907 0.35964C36.9198 -0.114021 37.9076 -0.114021 38.7366 0.35964C39.5657 0.833301 40.0596 1.68414 40.0596 2.64023V11.3416C40.0596 12.2801 39.5569 13.1485 38.7366 13.6221L25.8862 20.999C22.8962 22.7182 21.0353 25.9198 21.0353 29.3582V44.182C21.0353 45.1206 20.5237 45.9977 19.7035 46.4714L12.1184 50.7694C11.7039 51.0062 11.2541 51.1203 10.8043 51.1203V51.1115ZM37.4048 1.75431C37.2725 1.75431 37.1226 1.78939 36.9727 1.87711L14.7732 14.6221C11.7833 16.3413 9.93111 19.5341 9.93111 22.9638V48.4801C9.93111 48.9362 10.2398 49.1642 10.3721 49.2344C10.5044 49.3133 10.8572 49.4625 11.2541 49.2344L18.8391 44.9364C19.1125 44.7785 19.2801 44.489 19.2801 44.1733V29.3494C19.2801 25.2882 21.4763 21.5077 25.013 19.4727L37.8635 12.0959C38.1369 11.938 38.3045 11.6486 38.3045 11.3328V2.63146C38.3045 2.17534 37.9958 1.94728 37.8635 1.86834C37.7841 1.82448 37.6253 1.74554 37.4225 1.74554L37.4048 1.75431Z" fill="url(#paint4_linear_1_5420)"/>
<path d="M29.2465 73.7419C27.2621 73.7419 25.2776 73.2332 23.5048 72.2157L1.32297 59.4532C0.49391 58.9795 0 58.1287 0 57.1726C0 56.2253 0.49391 55.3744 1.32297 54.9008L8.90802 50.5501C9.71944 50.0852 10.7337 50.0852 11.554 50.5501L24.3956 57.9357C27.3855 59.6549 31.0987 59.6549 34.0974 57.9357L47.0096 50.5326C47.8299 50.0589 48.8442 50.0677 49.6644 50.5326L57.1965 54.9183C58.0256 55.4007 58.5107 56.2516 58.5107 57.1989C58.5107 58.1462 58.0168 58.9883 57.1877 59.4619L34.9529 72.1982C33.189 73.2069 31.2133 73.7156 29.2377 73.7156L29.2465 73.7419ZM2.20495 56.4182C1.80806 56.6463 1.76396 57.0235 1.76396 57.1814C1.76396 57.3392 1.80806 57.7164 2.20495 57.9445L24.3868 70.707C27.3767 72.4262 31.0899 72.4262 34.0798 70.7158L56.3145 57.9796C56.7114 57.7515 56.7555 57.3743 56.7555 57.2252C56.7555 57.0761 56.7114 56.6989 56.3145 56.4621L48.7824 52.0763C48.509 51.9185 48.1739 51.9185 47.9004 52.0763L34.9882 59.4795C31.4515 61.5057 27.0592 61.5057 23.5225 59.4707L10.6808 52.0851C10.4074 51.9272 10.0722 51.9272 9.79882 52.0851L2.21377 56.4358L2.20495 56.4182Z" fill="url(#paint5_linear_1_5420)"/>
<path d="M67.551 62.4443C67.1012 62.4443 66.6514 62.3302 66.2368 62.0934L58.6518 57.7954C57.8316 57.3305 57.32 56.4533 57.32 55.506V40.6822C57.32 37.2437 55.459 34.0422 52.4691 32.3229L39.6186 24.9461C38.7984 24.4725 38.2957 23.6041 38.2957 22.6655V13.9642C38.2957 13.0169 38.7896 12.166 39.6186 11.6836C40.4477 11.21 41.4355 11.21 42.2646 11.6836L64.4552 24.4286C67.992 26.4548 70.1881 30.2441 70.1881 34.2965V59.8128C70.1881 60.7601 69.6942 61.611 68.874 62.0846C68.4594 62.3214 68.0008 62.4443 67.5422 62.4443H67.551ZM40.0596 13.9642V22.6655C40.0596 22.9813 40.2272 23.2708 40.5006 23.4286L53.3511 30.8055C56.8878 32.8317 59.084 36.621 59.084 40.6822V55.506C59.084 55.8218 59.2515 56.1112 59.525 56.2691L67.11 60.5759C67.5157 60.804 67.8597 60.6461 67.992 60.5759C68.1243 60.5057 68.4242 60.2777 68.4242 59.8216V34.3053C68.4242 30.8756 66.5632 27.674 63.5733 25.9548L41.3826 13.2099C40.9857 12.9818 40.6329 13.1309 40.5006 13.2099C40.3683 13.2888 40.0596 13.5081 40.0596 13.973V13.9642Z" fill="url(#paint6_linear_1_5420)"/>
</g>
<defs>
<linearGradient id="paint0_linear_1_5420" x1="262.369" y1="19.035" x2="262.369" y2="58.249" gradientUnits="userSpaceOnUse">
<stop offset="0.70248" stop-color="white"/>
<stop offset="1" stop-color="white" stop-opacity="0"/>
</linearGradient>
<linearGradient id="paint1_linear_1_5420" x1="205.059" y1="18.8148" x2="205.059" y2="57.5063" gradientUnits="userSpaceOnUse">
<stop offset="0.70248" stop-color="white"/>
<stop offset="1" stop-color="white" stop-opacity="0"/>
</linearGradient>
<linearGradient id="paint2_linear_1_5420" x1="167.216" y1="19.7208" x2="167.216" y2="57.5048" gradientUnits="userSpaceOnUse">
<stop offset="0.70248" stop-color="white"/>
<stop offset="1" stop-color="white" stop-opacity="0"/>
</linearGradient>
<linearGradient id="paint3_linear_1_5420" x1="120.092" y1="19.7208" x2="120.092" y2="57.5048" gradientUnits="userSpaceOnUse">
<stop offset="0.70248" stop-color="white"/>
<stop offset="1" stop-color="white" stop-opacity="0"/>
</linearGradient>
<linearGradient id="paint4_linear_1_5420" x1="8.15833" y1="25.5601" x2="40.0596" y2="25.5601" gradientUnits="userSpaceOnUse">
<stop stop-color="white"/>
<stop offset="1" stop-color="white" stop-opacity="0"/>
</linearGradient>
<linearGradient id="paint5_linear_1_5420" x1="0" y1="61.9706" x2="58.5195" y2="61.9706" gradientUnits="userSpaceOnUse">
<stop stop-color="white" stop-opacity="0"/>
<stop offset="1" stop-color="white"/>
</linearGradient>
<linearGradient id="paint6_linear_1_5420" x1="46.2423" y1="50.6729" x2="62.0925" y2="23.0725" gradientUnits="userSpaceOnUse">
<stop stop-color="white" stop-opacity="0"/>
<stop offset="1" stop-color="white"/>
</linearGradient>
<clipPath id="clip0_1_5420">
<rect width="50.7259" height="15.1038" fill="white" transform="translate(236.017 65.7461)"/>
</clipPath>
<clipPath id="clip1_1_5420">
<rect width="70.1881" height="73.742" fill="white"/>
</clipPath>
</defs>
</svg>
