<svg width="157" height="166" viewBox="0 0 157 166" fill="none" xmlns="http://www.w3.org/2000/svg">
<g clip-path="url(#clip0_18195_56650)">
<path d="M24.1686 115.057C23.1427 115.057 22.1168 114.78 21.1896 114.247C19.3548 113.181 18.25 111.266 18.25 109.133V51.6935C18.25 42.5711 23.1624 34.0608 31.0538 29.4799L80.7304 0.809456C82.5849 -0.256798 84.7945 -0.256798 86.649 0.809456C88.5034 1.87571 89.6082 3.79102 89.6082 5.94327V25.5308C89.6082 27.6435 88.4837 29.5983 86.649 30.6646L57.9044 47.2705C51.2164 51.1406 47.0537 58.3477 47.0537 66.0879V99.4577C47.0537 101.57 45.9095 103.545 44.0747 104.611L27.1081 114.287C26.1809 114.82 25.1747 115.076 24.1686 115.076V115.057ZM83.67 3.94898C83.374 3.94898 83.0386 4.02797 82.7032 4.22542L33.0464 32.9156C26.3584 36.7857 22.2154 43.973 22.2154 51.6935V109.133C22.2154 110.16 22.9059 110.673 23.2019 110.831C23.4978 111.009 24.2869 111.344 25.1747 110.831L42.1413 101.156C42.7529 100.8 43.1277 100.149 43.1277 99.438V66.0682C43.1277 56.926 48.0401 48.4157 55.9513 43.8348L84.6958 27.2289C85.3074 26.8735 85.6823 26.2219 85.6823 25.511V5.92353C85.6823 4.89677 84.9918 4.38338 84.6958 4.20567C84.5183 4.10695 84.1632 3.92924 83.7094 3.92924L83.67 3.94898Z" fill="url(#paint0_linear_18195_56650)"/>
<path d="M65.42 166C60.981 166 56.5421 164.854 52.5767 162.564L2.95929 133.834C1.1048 132.768 0 130.853 0 128.701C0 126.568 1.1048 124.653 2.95929 123.586L19.9259 113.793C21.7409 112.746 24.0097 112.746 25.8444 113.793L54.5692 130.418C61.2572 134.289 69.563 134.289 76.2707 130.418L105.153 113.753C106.988 112.687 109.257 112.707 111.092 113.753L127.94 123.626C129.794 124.712 130.879 126.627 130.879 128.76C130.879 130.892 129.775 132.788 127.92 133.854L78.1843 162.524C74.2386 164.795 69.8194 165.94 65.4002 165.94L65.42 166ZM4.93214 127.002C4.04436 127.516 3.94572 128.365 3.94572 128.72C3.94572 129.076 4.04436 129.925 4.93214 130.438L54.5495 159.168C61.2375 163.038 69.5432 163.038 76.2312 159.188L125.967 130.517C126.855 130.004 126.953 129.155 126.953 128.819C126.953 128.483 126.855 127.634 125.967 127.101L109.119 117.228C108.507 116.873 107.757 116.873 107.146 117.228L78.2633 133.894C70.3521 138.455 60.5273 138.455 52.6161 133.874L23.8913 117.248C23.2797 116.893 22.53 116.893 21.9184 117.248L4.95187 127.042L4.93214 127.002Z" fill="url(#paint1_linear_18195_56650)"/>
<path d="M151.1 140.568C150.094 140.568 149.088 140.311 148.16 139.778L131.194 130.102C129.359 129.056 128.215 127.081 128.215 124.949V91.5791C128.215 83.8389 124.052 76.6318 117.364 72.7617L88.6194 56.1558C86.7847 55.0895 85.6602 53.1347 85.6602 51.022V31.4345C85.6602 29.302 86.765 27.3867 88.6194 26.3007C90.4739 25.2344 92.6835 25.2344 94.538 26.3007L144.175 54.9908C152.086 59.552 156.999 68.082 156.999 77.2044V134.644C156.999 136.776 155.894 138.692 154.059 139.758C153.132 140.291 152.106 140.568 151.08 140.568H151.1ZM89.6059 31.4345V51.022C89.6059 51.7328 89.9807 52.3844 90.5923 52.7398L119.337 69.3457C127.248 73.9069 132.16 82.437 132.16 91.5791V124.949C132.16 125.66 132.535 126.311 133.147 126.667L150.113 136.362C151.021 136.875 151.79 136.52 152.086 136.362C152.382 136.204 153.053 135.69 153.053 134.664V77.2242C153.053 69.5037 148.89 62.2966 142.202 58.4265L92.5652 29.7364C91.6774 29.223 90.8882 29.5587 90.5923 29.7364C90.2964 29.9141 89.6059 30.4077 89.6059 31.4542V31.4345Z" fill="url(#paint2_linear_18195_56650)"/>
</g>
<defs>
<linearGradient id="paint0_linear_18195_56650" x1="18.25" y1="57.5381" x2="89.6082" y2="57.5381" gradientUnits="userSpaceOnUse">
<stop stop-color="white"/>
<stop offset="1" stop-color="white" stop-opacity="0"/>
</linearGradient>
<linearGradient id="paint1_linear_18195_56650" x1="0" y1="139.501" x2="130.899" y2="139.501" gradientUnits="userSpaceOnUse">
<stop stop-color="white" stop-opacity="0"/>
<stop offset="1" stop-color="white"/>
</linearGradient>
<linearGradient id="paint2_linear_18195_56650" x1="103.436" y1="114.069" x2="139.23" y2="52.1345" gradientUnits="userSpaceOnUse">
<stop stop-color="white" stop-opacity="0"/>
<stop offset="1" stop-color="white"/>
</linearGradient>
<clipPath id="clip0_18195_56650">
<rect width="157" height="166" fill="white"/>
</clipPath>
</defs>
</svg>
